<mxfile host="app.diagrams.net" agent="Mozilla/5.0 (Windows NT 10.0; Win64; x64) AppleWebKit/537.36 (KHTML, like Gecko) Chrome/132.0.0.0 Safari/537.36" version="26.0.12">
  <diagram name="Page-1" id="zCmJh8yd27m8Hcqy4esn">
    <mxGraphModel grid="1" page="1" gridSize="10" guides="1" tooltips="1" connect="1" arrows="1" fold="1" pageScale="1" pageWidth="850" pageHeight="1100" math="0" shadow="0">
      <root>
        <mxCell id="0" />
        <mxCell id="1" parent="0" />
        <mxCell id="lO1qGrJUrlKmenWvmGT0-1" value="" style="rounded=0;whiteSpace=wrap;html=1;" vertex="1" parent="1">
          <mxGeometry y="80" width="160" height="40" as="geometry" />
        </mxCell>
        <mxCell id="lO1qGrJUrlKmenWvmGT0-2" value="&lt;font style=&quot;font-size: 15px;&quot;&gt;Lietotājs&lt;/font&gt;" style="text;html=1;align=center;verticalAlign=middle;whiteSpace=wrap;rounded=0;" vertex="1" parent="1">
          <mxGeometry y="80" width="160" height="40" as="geometry" />
        </mxCell>
        <mxCell id="lO1qGrJUrlKmenWvmGT0-3" value="" style="rounded=0;whiteSpace=wrap;html=1;" vertex="1" parent="1">
          <mxGeometry x="320" y="80" width="160" height="40" as="geometry" />
        </mxCell>
        <mxCell id="lO1qGrJUrlKmenWvmGT0-4" value="&lt;font style=&quot;font-size: 15px;&quot;&gt;Programma&lt;/font&gt;" style="text;html=1;align=center;verticalAlign=middle;whiteSpace=wrap;rounded=0;" vertex="1" parent="1">
          <mxGeometry x="320" y="80" width="160" height="40" as="geometry" />
        </mxCell>
        <mxCell id="lO1qGrJUrlKmenWvmGT0-7" value="" style="endArrow=none;dashed=1;html=1;rounded=0;entryX=0.5;entryY=1;entryDx=0;entryDy=0;" edge="1" parent="1" target="lO1qGrJUrlKmenWvmGT0-2">
          <mxGeometry width="50" height="50" relative="1" as="geometry">
            <mxPoint x="80" y="520" as="sourcePoint" />
            <mxPoint x="410" y="170" as="targetPoint" />
          </mxGeometry>
        </mxCell>
        <mxCell id="lO1qGrJUrlKmenWvmGT0-8" value="" style="endArrow=none;dashed=1;html=1;rounded=0;entryX=0.5;entryY=1;entryDx=0;entryDy=0;" edge="1" parent="1" target="lO1qGrJUrlKmenWvmGT0-4">
          <mxGeometry width="50" height="50" relative="1" as="geometry">
            <mxPoint x="400" y="520" as="sourcePoint" />
            <mxPoint x="399.55" y="120" as="targetPoint" />
          </mxGeometry>
        </mxCell>
        <mxCell id="lO1qGrJUrlKmenWvmGT0-10" value="&lt;b&gt;&lt;font style=&quot;font-size: 14px;&quot;&gt;Galvenās sistēmas apraksts&lt;/font&gt;&lt;/b&gt;" style="text;html=1;align=center;verticalAlign=middle;whiteSpace=wrap;rounded=0;" vertex="1" parent="1">
          <mxGeometry x="40" y="20" width="400" height="40" as="geometry" />
        </mxCell>
        <mxCell id="lO1qGrJUrlKmenWvmGT0-11" value="" style="endArrow=classic;html=1;rounded=0;" edge="1" parent="1">
          <mxGeometry width="50" height="50" relative="1" as="geometry">
            <mxPoint x="80" y="160" as="sourcePoint" />
            <mxPoint x="400" y="160" as="targetPoint" />
          </mxGeometry>
        </mxCell>
        <mxCell id="lO1qGrJUrlKmenWvmGT0-12" value="Nosūta programmai, kuru uzbrukumu veikt" style="text;html=1;align=center;verticalAlign=middle;whiteSpace=wrap;rounded=0;" vertex="1" parent="1">
          <mxGeometry x="80" y="130" width="320" height="30" as="geometry" />
        </mxCell>
        <mxCell id="lO1qGrJUrlKmenWvmGT0-19" value="" style="rounded=1;whiteSpace=wrap;html=1;" vertex="1" parent="1">
          <mxGeometry x="340" y="170" width="120" height="60" as="geometry" />
        </mxCell>
        <mxCell id="lO1qGrJUrlKmenWvmGT0-20" value="Pārbauda, vai šis uzbrukums ir iespējams" style="text;html=1;align=center;verticalAlign=middle;whiteSpace=wrap;rounded=0;" vertex="1" parent="1">
          <mxGeometry x="340" y="170" width="120" height="60" as="geometry" />
        </mxCell>
        <mxCell id="lO1qGrJUrlKmenWvmGT0-21" value="" style="rounded=1;whiteSpace=wrap;html=1;" vertex="1" parent="1">
          <mxGeometry x="340" y="250" width="120" height="60" as="geometry" />
        </mxCell>
        <mxCell id="lO1qGrJUrlKmenWvmGT0-22" value="Veic uzbrukumu" style="text;html=1;align=center;verticalAlign=middle;whiteSpace=wrap;rounded=0;" vertex="1" parent="1">
          <mxGeometry x="340" y="250" width="120" height="60" as="geometry" />
        </mxCell>
        <mxCell id="lO1qGrJUrlKmenWvmGT0-23" value="Ja iespējams" style="shape=umlFrame;whiteSpace=wrap;html=1;pointerEvents=0;" vertex="1" parent="1">
          <mxGeometry x="10" y="240" width="480" height="130" as="geometry" />
        </mxCell>
        <mxCell id="lO1qGrJUrlKmenWvmGT0-26" value="" style="endArrow=classic;html=1;rounded=0;" edge="1" parent="1">
          <mxGeometry width="50" height="50" relative="1" as="geometry">
            <mxPoint x="400" y="440" as="sourcePoint" />
            <mxPoint x="80" y="440" as="targetPoint" />
          </mxGeometry>
        </mxCell>
        <mxCell id="lO1qGrJUrlKmenWvmGT0-27" value="Nosūta, ka ticis pieprasīts neeksistējos uzbrukums" style="text;html=1;align=center;verticalAlign=middle;whiteSpace=wrap;rounded=0;flipV=1;flipH=1;" vertex="1" parent="1">
          <mxGeometry x="80" y="410" width="320" height="30" as="geometry" />
        </mxCell>
        <mxCell id="lO1qGrJUrlKmenWvmGT0-28" value="" style="endArrow=classic;html=1;rounded=0;" edge="1" parent="1">
          <mxGeometry width="50" height="50" relative="1" as="geometry">
            <mxPoint x="400" y="360" as="sourcePoint" />
            <mxPoint x="80" y="360" as="targetPoint" />
          </mxGeometry>
        </mxCell>
        <mxCell id="lO1qGrJUrlKmenWvmGT0-29" value="Nosūta klientam rezultātus" style="text;html=1;align=center;verticalAlign=middle;whiteSpace=wrap;rounded=0;flipV=1;flipH=1;" vertex="1" parent="1">
          <mxGeometry x="80" y="330" width="320" height="30" as="geometry" />
        </mxCell>
        <mxCell id="lO1qGrJUrlKmenWvmGT0-30" value="Ja nav iespējams" style="shape=umlFrame;whiteSpace=wrap;html=1;pointerEvents=0;" vertex="1" parent="1">
          <mxGeometry x="10" y="380" width="480" height="90" as="geometry" />
        </mxCell>
      </root>
    </mxGraphModel>
  </diagram>
</mxfile>
